<svg xmlns="http://www.w3.org/2000/svg" viewBox="0 0 396.72 396.72">
  <defs>
    <style>
      .a{fill:#53b7e8;}
      .b{fill:#fdb913;}
      .c{fill:#007ac1;}
    </style>
  </defs>
  <title>
    WALM-0005-0001 AF LOGO GRUPO BIG CMYK
  </title>
  <path class="a" d="M473.93,329.58a17.88,17.88,0,0,0,25.82-14.24q.92-9.19.92-18.63c0-103.71-84.07-187.78-187.78-187.78-5.75,0-11.45.26-17.07.77a17.84,17.84,0,0,0-16.08,15.76l-10.1,88.12a17.87,17.87,0,0,0,9.71,18Z" transform="translate(-118.07 -108.93)"/>
  <path class="a" d="M250.4,147.94A17.91,17.91,0,0,0,224,131.26,187.95,187.95,0,0,0,138.64,366.8a17.9,17.9,0,0,0,18.88,11l66.88-8.55A17.91,17.91,0,0,0,240,352.42Z" transform="translate(-118.07 -108.93)"/>
  <path class="a" d="M473.2,360.1l-38.28-24.26a17.87,17.87,0,0,0-15.55-1.74l-160,57.07a17.84,17.84,0,0,0-11.74,14.77l-5.74,50.14a17.81,17.81,0,0,0,12,18.95,188,188,0,0,0,225.56-91.57A17.86,17.86,0,0,0,473.2,360.1Z" transform="translate(-118.07 -108.93)"/>
  <path class="b" d="M120.33,439a188.6,188.6,0,0,0,57.92,63.53,17.83,17.83,0,0,0,27.21-9.88L233,395.81a9.93,9.93,0,0,0-12.67-12.15l-90,29.72A17.84,17.84,0,0,0,120.33,439Z" transform="translate(-118.07 -108.93)"/>
  <path class="a" d="M251.79,355.1,267,253.79a9.91,9.91,0,0,1,15.39-6.72l102.8,70.21a9.92,9.92,0,0,1-3.07,17.78L264.13,366.15A9.92,9.92,0,0,1,251.79,355.1Z" transform="translate(-118.07 -108.93)"/>
</svg>
