<svg xmlns="http://www.w3.org/2000/svg" viewBox="0 0 269.6 426.8"><defs><style>.a{fill:#fdb913;}.b{fill:#53b7e8;}.c{fill:#007ac1;}</style></defs><title>WALM-0005-0001 AF LOGO GRUPO BIG SIMPLIFICADO VERT. CMYK</title><path class="a" d="M460.8,318.82a130.48,130.48,0,0,0,40.06,43.95,12.35,12.35,0,0,0,18.83-6.84l19-67a6.87,6.87,0,0,0-8.77-8.41L467.73,301.1A12.35,12.35,0,0,0,460.8,318.82Z" transform="translate(-459.24 -90.51)"/><path class="b" d="M705.39,243.14a12.37,12.37,0,0,0,17.86-9.85q.63-6.36.64-12.89A129.89,129.89,0,0,0,594,90.51q-6,0-11.8.53a12.35,12.35,0,0,0-11.13,10.9l-7,61a12.35,12.35,0,0,0,6.72,12.44Z" transform="translate(-459.24 -90.51)"/><path class="b" d="M550.77,117.49A12.4,12.4,0,0,0,532.52,106a130,130,0,0,0-59.06,162.93,12.37,12.37,0,0,0,13.06,7.63l46.26-5.91a12.39,12.39,0,0,0,10.81-11.66Z" transform="translate(-459.24 -90.51)"/><path class="b" d="M704.88,264.24l-26.47-16.78a12.39,12.39,0,0,0-10.76-1.2L557,285.74A12.35,12.35,0,0,0,548.83,296l-4,34.68a12.32,12.32,0,0,0,8.33,13.11,130,130,0,0,0,156-63.35A12.35,12.35,0,0,0,704.88,264.24Z" transform="translate(-459.24 -90.51)"/><path class="b" d="M551.73,260.79l10.48-70.08a6.86,6.86,0,0,1,10.65-4.65L644,234.63a6.86,6.86,0,0,1-2.12,12.3l-81.59,21.5A6.85,6.85,0,0,1,551.73,260.79Z" transform="translate(-459.24 -90.51)"/><path class="c" d="M498.23,398H483.94v4.23h14.29c3.36,0,4.41.58,4.41,4.21v3.51H479.72C473,409.9,465,407.67,465,397s8-12.85,14.74-12.85H503.8V380H479.72c-16.57,0-19,10.7-19,17.08s2.47,17.08,19,17.08h27.22v-8.4C506.94,400.2,504.42,398,498.23,398Z" transform="translate(-459.24 -90.51)"/><path class="c" d="M557,399.71c2.55-1.83,3.84-4.72,3.84-8.64,0-7.68-4.48-11.11-14.53-11.11H522.71c-6.19,0-8.71,2.25-8.71,7.77v26.39h4.3V402.18h29.2c7.64,0,10.22,1.74,10.22,6.88v5.06H562v-5.06C562,404.54,560.38,401.45,557,399.71ZM518.3,398V388.4c0-3,.4-4.21,4.41-4.21h23.61c7.64,0,10.22,1.73,10.22,6.88S554,398,546.32,398Z" transform="translate(-459.24 -90.51)"/><path class="c" d="M613.08,399c0,6.63-8.11,11.26-19.71,11.26s-19.72-4.63-19.72-11.26V380h-4.3V399c0,9.12,9.88,15.48,24,15.48s24-6.36,24-15.48V380h-4.3Z" transform="translate(-459.24 -90.51)"/><path class="c" d="M659.32,380H634.53c-6.19,0-8.72,2.25-8.72,7.77v26.39h4.31V402.18h29.2c10,0,14.52-3.43,14.52-11.11S669.36,380,659.32,380Zm-29.2,8.44c0-3,.4-4.21,4.41-4.21h24.79c7.64,0,10.22,1.73,10.22,6.88S667,398,659.32,398h-29.2Z" transform="translate(-459.24 -90.51)"/><path class="c" d="M703.37,379.57c-20.9,0-24,10.95-24,17.47s3.12,17.47,24,17.47,24-10.94,24-17.47S724.26,379.57,703.37,379.57ZM723.08,397c0,8.79-6.63,13.25-19.71,13.25s-19.71-4.46-19.71-13.25,6.63-13.24,19.71-13.24S723.08,388.25,723.08,397Z" transform="translate(-459.24 -90.51)"/><path class="c" d="M528.21,517.31H459.36v-95H530c21.37,0,35,8.31,35,26.11a26,26,0,0,1-3,11.28c8.31,4.39,13.65,12.35,13.65,26.12C575.7,513.15,557.3,517.31,528.21,517.31ZM530,442.52H483.1v11.87H530c8.31,0,11.28-1.78,11.28-5.94S538.3,442.52,530,442.52Zm-1.78,32.05H483.1v22.56h45.11c16.62,0,23.74-2.38,23.74-11.28S544.83,474.57,528.21,474.57Z" transform="translate(-459.24 -90.51)"/><path class="c" d="M584,517.31v-95h23.75v95Z" transform="translate(-459.24 -90.51)"/><path class="c" d="M674.23,517.31c-37.75,0-58.17-12-58.17-47.49s20.3-47.48,58.17-47.48h45.11v20.18H674.23c-21.61,0-34.43,7.12-34.43,27.3s12.82,27.31,34.43,27.31h32V483.34c0-3-2.37-4.74-10.68-4.74H655.85V458.41h38.56c21.37,0,34.43,7.13,34.43,24.93v34Z" transform="translate(-459.24 -90.51)"/></svg>