
<svg xmlns="http://www.w3.org/2000/svg" viewBox="0 0 966.66 396.72"><defs><style>.a{fill:#53b7e8;}.b{fill:#fdb913;}.c{fill:#007ac1;}</style></defs><title>WALM-0005-0001 AF LOGO GRUPO BIG SIMPLIFICADO CMYK</title><path class="a" d="M473.93,329.58a17.88,17.88,0,0,0,25.82-14.24q.92-9.19.92-18.63c0-103.71-84.07-187.78-187.78-187.78-5.75,0-11.45.26-17.07.77a17.84,17.84,0,0,0-16.08,15.76l-10.1,88.12a17.87,17.87,0,0,0,9.71,18Z" transform="translate(-118.07 -108.93)"/><path class="a" d="M250.4,147.94A17.91,17.91,0,0,0,224,131.26,187.95,187.95,0,0,0,138.64,366.8a17.9,17.9,0,0,0,18.88,11l66.88-8.55A17.91,17.91,0,0,0,240,352.42Z" transform="translate(-118.07 -108.93)"/><path class="a" d="M473.2,360.1l-38.28-24.26a17.87,17.87,0,0,0-15.55-1.74l-160,57.07a17.84,17.84,0,0,0-11.74,14.77l-5.74,50.14a17.81,17.81,0,0,0,12,18.95,188,188,0,0,0,225.56-91.57A17.86,17.86,0,0,0,473.2,360.1Z" transform="translate(-118.07 -108.93)"/><path class="b" d="M120.33,439a188.6,188.6,0,0,0,57.92,63.53,17.83,17.83,0,0,0,27.21-9.88L233,395.81a9.93,9.93,0,0,0-12.67-12.15l-90,29.72A17.84,17.84,0,0,0,120.33,439Z" transform="translate(-118.07 -108.93)"/><path class="a" d="M251.79,355.1,267,253.79a9.91,9.91,0,0,1,15.39-6.72l102.8,70.21a9.92,9.92,0,0,1-3.07,17.78L264.13,366.15A9.92,9.92,0,0,1,251.79,355.1Z" transform="translate(-118.07 -108.93)"/><path class="c" d="M614.11,188.74H585v8.62h29.15c6.86,0,9,1.19,9,8.6v7.15H576.35c-13.73,0-30.08-4.55-30.08-26.23s16.35-26.24,30.08-26.24h49.13V152H576.35c-33.82,0-38.87,21.84-38.87,34.86s5,34.85,38.87,34.85h55.54V204.59C631.89,193.33,626.74,188.74,614.11,188.74Z" transform="translate(-118.07 -108.93)"/><path class="c" d="M734.08,192.32c5.2-3.73,7.83-9.64,7.83-17.63,0-15.68-9.14-22.67-29.65-22.67H664.07c-12.62,0-17.78,4.59-17.78,15.86v53.85h8.79V197.36h59.59c15.6,0,20.86,3.55,20.86,14v10.32h8.78V211.41C744.31,202.17,741,195.88,734.08,192.32Zm-79-3.58v-19.5c0-6.11.81-8.6,9-8.6h48.19c15.6,0,20.87,3.55,20.87,14.05s-5.27,14.05-20.87,14.05Z" transform="translate(-118.07 -108.93)"/><path class="c" d="M848.49,190.93c0,13.53-16.54,23-40.22,23s-40.23-9.45-40.23-23V152h-8.78v38.91c0,18.61,20.15,31.6,49,31.6s49-13,49-31.6V152h-8.79Z" transform="translate(-118.07 -108.93)"/><path class="c" d="M942.86,152h-50.6c-12.62,0-17.77,4.59-17.77,15.86v53.85h8.78V197.36h59.59c20.5,0,29.64-7,29.64-22.67S963.36,152,942.86,152Zm-59.59,17.22c0-6.11.82-8.6,9-8.6h50.6c15.6,0,20.86,3.55,20.86,14.05s-5.26,14.05-20.86,14.05H883.27Z" transform="translate(-118.07 -108.93)"/><path class="c" d="M1032.76,151.22c-42.65,0-49,22.34-49,35.66s6.36,35.65,49,35.65,49-22.34,49-35.65S1075.4,151.22,1032.76,151.22ZM1073,186.88c0,17.93-13.53,27-40.22,27s-40.23-9.1-40.23-27,13.53-27,40.23-27S1073,168.94,1073,186.88Z" transform="translate(-118.07 -108.93)"/><path class="c" d="M675.3,432.31H534.79V238.49H678.94c43.61,0,71.47,17,71.47,53.3,0,8.73-2.91,16.48-6.06,23,17,9,27.86,25.19,27.86,53.3C772.21,423.83,734.66,432.31,675.3,432.31Zm3.64-152.63h-95.7v24.23h95.7c17,0,23-3.64,23-12.12S695.9,279.68,678.94,279.68Zm-3.64,65.41H583.24v46H675.3c33.92,0,48.46-4.84,48.46-23S709.22,345.09,675.3,345.09Z" transform="translate(-118.07 -108.93)"/><path class="c" d="M789.16,432.31V238.49h48.46V432.31Z" transform="translate(-118.07 -108.93)"/><path class="c" d="M973.29,432.31c-77,0-118.71-24.47-118.71-96.91S896,238.49,973.29,238.49h92.06v41.19H973.29c-44.1,0-70.26,14.54-70.26,55.72s26.16,55.72,70.26,55.72h65.41V363c0-6.06-4.85-9.69-21.8-9.69H935.78V312.12h78.69c43.61,0,70.26,14.54,70.26,50.88v69.31Z" transform="translate(-118.07 -108.93)"/></svg>